<svg width="365" height="352" viewBox="0 0 365 352" fill="none" xmlns="http://www.w3.org/2000/svg">
<path d="M265.126 130.232V140.037L274.929 140.23C319.262 141.103 355 177.47 355 222.28C355 267.64 318.381 304.345 273.291 304.345C232.143 304.345 198.039 273.772 192.401 233.948H172.599C166.961 273.772 132.857 304.345 91.7085 304.345C46.6187 304.345 10 267.64 10 222.28C10 176.92 46.6187 140.214 91.7085 140.214H101.709V130.214C101.709 84.854 138.327 48.1487 183.417 48.1487C228.507 48.1487 265.126 84.854 265.126 130.214V130.215V130.215V130.215V130.215V130.216V130.216V130.216V130.216V130.216V130.217V130.217V130.217V130.217V130.218V130.218V130.218V130.218V130.219V130.219V130.219V130.219V130.22V130.22V130.22V130.22V130.221V130.221V130.221V130.221V130.222V130.222V130.222V130.222V130.223V130.223V130.223V130.223V130.224V130.224V130.224V130.224V130.225V130.225V130.225V130.225V130.226V130.226V130.226V130.226V130.227V130.227V130.227V130.227V130.228V130.228V130.228V130.228V130.229V130.229V130.229V130.229V130.229V130.23V130.23V130.23V130.23V130.231V130.231V130.231V130.231V130.232V130.232V130.232Z" stroke="#B366FF" stroke-width="20"/>
<path d="M172 245.747C172 240.224 176.477 235.747 182 235.747V235.747C187.523 235.747 192 240.224 192 245.747V341.747C192 347.27 187.523 351.747 182 351.747V351.747C176.477 351.747 172 347.27 172 341.747V245.747Z" fill="#B366FF"/>
</svg>
